<svg width="38" height="13" viewBox="0 0 38 13" fill="none" xmlns="http://www.w3.org/2000/svg">
<g clip-path="url(#clip0_34_558)">
<path fill-rule="evenodd" clip-rule="evenodd" d="M6.30041 0.428223C6.28798 0.428223 6.27556 0.428223 6.26313 0.428223C4.5941 0.428223 2.98823 0.818332 1.43205 1.60533C0.800471 3.11675 0.4443 4.6532 0.425664 6.22094C0.400814 7.77616 0.719194 9.36893 1.42532 10.9935C3.05035 11.7049 4.67538 12.07 6.30041 12.0893C7.92543 12.07 9.55046 11.7049 11.175 10.9935C11.8816 9.36893 12.2 7.77616 12.1751 6.22094C12.1565 4.6532 11.8003 3.11675 11.1688 1.60533C9.61258 0.818332 8.00671 0.428223 6.33768 0.428223C6.32525 0.428223 6.31283 0.428223 6.30041 0.428223Z" fill="#FEFEFE"/>
<path d="M1.16992 1.25951C2.80737 0.415665 4.50695 0 6.26347 0C6.27589 0 6.28832 0 6.30074 0C6.31317 0 6.32559 0 6.33802 0C8.09454 0 9.79411 0.415665 11.4316 1.25951L11.532 1.36643C12.2003 2.95294 12.5819 4.57127 12.6005 6.21464C12.6005 6.24593 12.6005 6.27096 12.6005 6.30278V6.41595C12.5943 7.99621 12.2568 9.60828 11.532 11.2454L11.4191 11.3523C9.71335 12.1143 8.00705 12.4981 6.30074 12.5174C4.59444 12.4981 2.88813 12.1143 1.18234 11.3523L1.06949 11.2454C0.344722 9.60828 0.00718884 7.99621 0.000976562 6.41595V6.30278C0.000976562 6.27096 0.000976562 6.24593 0.000976562 6.21464C0.0196134 4.57127 0.401151 2.95294 1.06949 1.36643L1.16992 1.25951ZM6.30074 0.428182C6.28832 0.428182 6.27589 0.428182 6.26347 0.428182C4.59444 0.428182 2.98856 0.818292 1.43239 1.60529C0.800807 3.11671 0.444637 4.65316 0.426 6.2209C0.401151 7.77612 0.71953 9.36889 1.42566 10.9935C3.05069 11.7049 4.67571 12.0699 6.30074 12.0892C7.92577 12.0699 9.5508 11.7049 11.1753 10.9935C11.882 9.36889 12.2003 7.77612 12.1755 6.2209C12.1568 4.65316 11.8007 3.11671 11.1691 1.60529C9.61292 0.818292 8.00705 0.428182 6.33802 0.428182C6.32559 0.428182 6.31317 0.428182 6.30074 0.428182Z" fill="#003399"/>
<path fill-rule="evenodd" clip-rule="evenodd" d="M6.41259 9.75341C6.3251 8.55075 6.38153 7.29749 6.02536 6.15168C5.69404 5.08148 4.4376 4.47076 4.41275 3.29313C4.38791 2.37366 5.08161 1.30973 6.38153 1.30973C7.60017 1.30347 8.35651 2.19738 8.444 3.19247C8.55013 4.34455 7.16272 5.11903 6.80034 6.21478C6.42501 7.33557 6.53166 8.57578 6.41259 9.75341Z" fill="#003399"/>
<path fill-rule="evenodd" clip-rule="evenodd" d="M6.89388 9.46315C6.84367 8.41799 6.84367 7.41716 7.1315 6.52898C7.44988 5.52189 8.11252 4.67179 9.12512 4.39485C9.81883 4.20606 10.8371 5.02435 10.6751 5.86194C10.5374 6.53576 9.86853 7.32902 8.7938 7.41716C8.29372 7.46097 8.08146 7.86412 7.76878 8.09725C9.16861 7.95852 10.0751 7.40464 10.7061 6.82522C10.7999 7.31598 10.8625 8.14106 10.481 8.42425C9.73134 8.95935 9.03764 8.52491 8.15601 8.77681C7.66265 8.9218 7.35618 9.23681 6.89388 9.46315Z" fill="#003399"/>
<path fill-rule="evenodd" clip-rule="evenodd" d="M5.93873 9.46315C5.99464 8.41799 5.98843 7.41716 5.70733 6.52898C5.38843 5.52189 4.72631 4.67179 3.7137 4.39485C3.02 4.20606 1.99498 5.02435 2.16374 5.86194C2.30145 6.53576 2.96978 7.32902 4.04503 7.41716C4.5389 7.46097 4.75737 7.86412 5.07005 8.09725C3.66349 7.95852 2.76374 7.40464 2.13268 6.82522C2.03898 7.31598 1.97634 8.14106 2.35736 8.42425C3.10749 8.95935 3.80119 8.52491 4.6823 8.77681C5.17618 8.9218 5.47592 9.23681 5.93873 9.46315Z" fill="#003399"/>
<path fill-rule="evenodd" clip-rule="evenodd" d="M9.26949 11.0186V10.8486L9.39477 10.8173L9.26949 10.6285V10.3135L9.83222 11.1005L9.63239 11.1511L9.49468 10.9555L9.26949 11.0186ZM9.26949 10.3135V10.6285L9.182 10.5023L9.14472 10.8804L9.26949 10.8486V11.0186L9.12609 11.0504L9.10072 11.2831L8.90089 11.3336L9.03239 10.3073L9.23221 10.2567L9.26949 10.3135ZM7.40736 11.5668V11.403H7.45084C7.51969 11.3967 7.5637 11.3905 7.58234 11.3837C7.60718 11.3774 7.63203 11.3587 7.64498 11.3399C7.66361 11.3149 7.66983 11.2893 7.66983 11.258C7.66361 11.2267 7.6574 11.2012 7.63825 11.1824C7.62582 11.1636 7.60097 11.1511 7.57612 11.1448C7.55127 11.1386 7.49485 11.1386 7.40736 11.1448V10.9811C7.45705 10.9811 7.48863 10.9748 7.50106 10.9748C7.53212 10.9686 7.55749 10.9493 7.57612 10.9305C7.59476 10.9117 7.60097 10.8867 7.59476 10.8549C7.59476 10.8236 7.58234 10.7985 7.5637 10.7855C7.55127 10.7667 7.52591 10.7542 7.48863 10.7542C7.47621 10.7542 7.45084 10.7542 7.40736 10.7605V10.5967C7.47621 10.5904 7.52591 10.5904 7.55749 10.5967C7.59476 10.5967 7.63203 10.6097 7.66361 10.6285C7.69467 10.641 7.71952 10.6661 7.74489 10.6974C7.76353 10.7292 7.77595 10.7667 7.78216 10.8111C7.78838 10.8549 7.77595 10.8992 7.75732 10.9367C7.73868 10.9748 7.7071 11.0061 7.66361 11.0311C7.72574 11.0442 7.77595 11.0692 7.80701 11.1068C7.8448 11.1448 7.86344 11.1887 7.86965 11.2455C7.86965 11.2893 7.86344 11.3336 7.85102 11.3774C7.83238 11.4218 7.80701 11.4531 7.77595 11.4849C7.73868 11.5099 7.70089 11.5287 7.65119 11.5412C7.61961 11.5475 7.53833 11.5537 7.41978 11.5668H7.40736ZM8.58821 11.0374L8.78234 11.063C8.76992 11.1699 8.73834 11.258 8.68243 11.3211C8.626 11.3774 8.54472 11.4218 8.44481 11.4406C8.31953 11.4593 8.20719 11.4343 8.11349 11.3649C8.01357 11.2893 7.95714 11.1824 7.92608 11.0311C7.90071 10.8742 7.91987 10.7417 7.9882 10.641C8.05085 10.5404 8.15076 10.4773 8.28225 10.4522C8.4008 10.4329 8.49451 10.4522 8.582 10.5086C8.63221 10.5404 8.6757 10.5904 8.70728 10.6661L8.52608 10.7417C8.50745 10.6974 8.47587 10.6598 8.43859 10.641C8.39459 10.616 8.35111 10.6097 8.30089 10.616C8.23204 10.6285 8.18234 10.6661 8.14455 10.7229C8.10727 10.7855 8.10106 10.8679 8.1197 10.9811C8.14455 11.1005 8.18234 11.1824 8.23204 11.2267C8.28225 11.2705 8.34489 11.2893 8.41323 11.2768C8.46344 11.2643 8.50124 11.2392 8.5323 11.2012C8.56336 11.1636 8.582 11.1068 8.58821 11.0374ZM7.40736 10.5967V10.7605C7.38251 10.7605 7.35714 10.7667 7.32608 10.7667L7.21374 10.7798L7.23238 10.9999L7.36335 10.9873C7.37578 10.9873 7.39493 10.9873 7.40736 10.9811V11.1448C7.40736 11.1448 7.40736 11.1448 7.40114 11.1448L7.25101 11.1574L7.26965 11.4155L7.40736 11.403V11.5668L7.09467 11.5981L7.00718 10.6348L7.38872 10.6035C7.39493 10.5967 7.40114 10.5967 7.40736 10.5967ZM6.20114 11.233V11.0692C6.24462 11.0692 6.26999 11.063 6.28863 11.0567C6.31348 11.0504 6.33211 11.0311 6.35127 11.0124C6.36369 10.9873 6.36991 10.9623 6.36991 10.9367C6.37612 10.8992 6.36369 10.8742 6.34454 10.8486C6.3259 10.8236 6.30105 10.8111 6.26999 10.8048C6.25084 10.8048 6.2322 10.7985 6.20114 10.7985V10.6348C6.29484 10.6348 6.35127 10.641 6.38233 10.6536C6.43876 10.6661 6.48224 10.6974 6.52004 10.748C6.55731 10.7985 6.57595 10.8611 6.56973 10.9367C6.56973 10.9936 6.55731 11.0442 6.53867 11.088C6.51331 11.1255 6.48846 11.1574 6.4574 11.1824C6.4196 11.2012 6.38854 11.2137 6.35127 11.2267C6.31348 11.233 6.26378 11.233 6.20114 11.233ZM6.20114 10.6348V10.7985C6.1825 10.7985 6.15713 10.7985 6.12607 10.7985L6.03237 10.7923V11.0692H6.13229C6.15713 11.0692 6.1825 11.0692 6.20114 11.0692V11.233C6.18871 11.233 6.16956 11.233 6.15092 11.233H6.02616L6.01995 11.5981L5.82581 11.5918L5.84497 10.6285L6.15092 10.6348C6.16956 10.6348 6.18871 10.6348 6.20114 10.6348ZM4.39492 11.1386V10.8424C4.45135 10.8549 4.48862 10.8549 4.50726 10.8549C4.53262 10.8486 4.55126 10.8424 4.5699 10.8236C4.58232 10.8048 4.59475 10.7855 4.60096 10.7542C4.60717 10.7229 4.60096 10.6974 4.58853 10.6723C4.57611 10.6473 4.55126 10.6348 4.51968 10.6223C4.50726 10.616 4.46377 10.6097 4.39492 10.5967V10.4329L4.4762 10.446C4.57611 10.4648 4.64496 10.4835 4.68845 10.5086C4.73245 10.5341 4.76351 10.5717 4.78215 10.6223C4.8013 10.6661 4.80752 10.7229 4.79509 10.7798C4.78215 10.8486 4.75109 10.9055 4.70139 10.943C4.65739 10.9811 4.58853 10.9999 4.50104 10.9999C4.53884 11.0311 4.5699 11.063 4.58853 11.0943C4.61338 11.1323 4.63875 11.1887 4.66981 11.2705L4.75109 11.4786L4.52589 11.4343L4.42598 11.2012C4.41355 11.1824 4.40734 11.1574 4.39492 11.1386ZM4.9447 10.5404L5.13211 10.5592L5.08862 11.0817C5.08241 11.1636 5.08241 11.2205 5.08241 11.2392C5.08862 11.2831 5.10726 11.3149 5.13211 11.3399C5.16369 11.3712 5.20096 11.3837 5.25739 11.3905C5.31382 11.3967 5.3573 11.3837 5.38215 11.3649C5.41373 11.3462 5.43237 11.3211 5.44479 11.2893C5.45101 11.258 5.45722 11.2012 5.46343 11.1255L5.50743 10.5904L5.70105 10.6097L5.65756 11.113C5.65135 11.233 5.63841 11.3149 5.61977 11.3587C5.60735 11.403 5.5825 11.4468 5.55713 11.4718C5.52607 11.5037 5.48258 11.5287 5.43237 11.5412C5.38837 11.5605 5.32624 11.5605 5.25118 11.5537C5.15748 11.5475 5.08862 11.5287 5.04462 11.5037C5.00113 11.4786 4.96334 11.4468 4.93849 11.4155C4.91364 11.3774 4.90122 11.3399 4.89501 11.3023C4.88879 11.2455 4.88879 11.1636 4.89501 11.0567L4.9447 10.5404ZM3.42632 10.8236L3.46359 10.6661L3.86998 10.773L3.77007 11.1448C3.71985 11.1761 3.65721 11.1949 3.56972 11.2012C3.48844 11.2074 3.4139 11.2012 3.33883 11.1824C3.2384 11.1574 3.15764 11.113 3.10121 11.0567C3.03857 10.9936 3.0013 10.918 2.98266 10.8361C2.96972 10.748 2.96972 10.6598 2.99508 10.5717C3.01993 10.4773 3.06342 10.3954 3.12606 10.326C3.18249 10.2634 3.25755 10.2254 3.34504 10.2066C3.41389 10.1878 3.49465 10.1941 3.58266 10.2191C3.695 10.2504 3.78249 10.2947 3.83219 10.3641C3.8824 10.4267 3.90725 10.5086 3.90104 10.5967L3.70743 10.5842C3.70743 10.5341 3.695 10.4898 3.66342 10.4522C3.63236 10.4204 3.59509 10.3891 3.53866 10.3766C3.45738 10.3578 3.38853 10.3641 3.32589 10.4017C3.26377 10.4397 3.21976 10.5148 3.1887 10.616C3.15764 10.7292 3.16385 10.8173 3.19491 10.8867C3.23219 10.9555 3.28861 10.9999 3.36368 11.0186C3.40717 11.0311 3.44496 11.0311 3.48844 11.0311C3.53245 11.0249 3.56972 11.0124 3.60751 10.9999L3.63857 10.8804L3.42632 10.8236ZM4.39492 10.4329L4.06981 10.3766L3.90725 11.3274L4.09466 11.3587L4.16351 10.9623L4.20751 10.9686C4.251 10.9748 4.28258 10.9873 4.30122 10.9936C4.31985 11.0061 4.33228 11.0249 4.35091 11.0442C4.35713 11.063 4.37628 11.0943 4.39492 11.1386V10.8424C4.37628 10.8424 4.35713 10.8361 4.33228 10.8361L4.19509 10.8111L4.23236 10.5717L4.38249 10.5967C4.38871 10.5967 4.39492 10.5967 4.39492 10.5967V10.4329Z" fill="#003399"/>
<path fill-rule="evenodd" clip-rule="evenodd" d="M34.1812 9.25575V7.47991H34.9562V4.35695L34.1812 5.91843V2.02098H37.2247L37.9997 10.9998H34.9562V9.25575H34.1812ZM34.1812 2.02098V5.91843L33.4062 7.47991H34.1812V9.25575H32.7187L32.1187 10.9054H30.2312V8.8526L32.3372 4.27507H31.906L33.106 2.02098H34.1812ZM30.2312 5.012L31.175 2.75792L30.2312 2.22908V5.012ZM22.7252 4.14938C22.7692 3.89122 22.7692 3.63931 22.7252 3.39993V4.14938ZM30.2312 2.22908V5.012L30.1065 5.31397C28.2438 3.9731 25.4939 5.19454 25.3375 6.61103C25.1817 8.09063 26.3004 9.28704 29.1565 8.39312L28.175 11.0373C24.4067 11.4592 22.9442 9.95461 22.7252 8.19807V7.20298C22.7817 6.7435 22.9002 6.29655 23.0628 5.88088C24.9192 1.23398 27.9311 2.27914 29.0752 2.191L29.244 1.67468L30.2312 2.22908ZM30.2312 8.8526L29.2875 10.9054H30.2312V8.8526ZM19.338 10.8485C21.3565 10.4459 23.3377 8.00249 21.3503 6.05716C22.1252 5.64149 22.6067 4.89257 22.7252 4.14938V3.39993C22.5881 2.62545 21.9943 1.99595 20.8755 1.97717L19.338 1.94536V3.67061H19.9753C20.6566 3.67061 20.5691 5.44644 19.719 5.44644H19.338V6.80661C20.2569 6.98289 19.9318 8.26691 19.338 8.6638V10.8485ZM22.7252 7.20298V8.19807C22.688 7.87054 22.688 7.53676 22.7252 7.20298ZM16.6755 1.88903L15.432 4.3194L15.988 4.27507L14.4883 10.9054H18.782C18.9694 10.9054 19.1506 10.8866 19.338 10.8485V8.6638C19.2319 8.73943 19.1128 8.78324 18.9943 8.78324H17.4505L17.963 6.78731H19.119C19.2003 6.78731 19.2754 6.79357 19.338 6.80661V5.44644H18.2628L18.694 3.67061H19.338V1.94536L16.6755 1.88903Z" fill="#003399"/>
</g>
<defs>
<clipPath id="clip0_34_558">
<rect width="38" height="12.5174" fill="white"/>
</clipPath>
</defs>
</svg>
