<svg width="38" height="32" viewBox="0 0 38 32" fill="none" xmlns="http://www.w3.org/2000/svg">
<g clip-path="url(#clip0_34_529)">
<path fill-rule="evenodd" clip-rule="evenodd" d="M7.55176 3.26354C7.55176 1.46127 9.02336 0 10.8384 0H27.1815C28.9965 0 30.4668 1.46127 30.4668 3.26354V19.492C30.4668 21.2943 28.9965 22.7555 27.1815 22.7555H10.8384C9.02336 22.7555 7.55176 21.2943 7.55176 19.492V3.26354ZM11.5493 20.5257C10.5821 20.5257 9.79739 19.7464 9.79739 18.7847V3.97486C9.79739 3.01444 10.5821 2.23519 11.5493 2.23519H13.5481C16.1828 2.23519 18.1333 4.88465 16.4484 6.56038L11.5614 11.4197L15.7562 15.7835C17.7899 17.8988 15.4074 20.5257 13.1511 20.5257H11.5493ZM17.8932 2.23519H19.5821C22.2154 2.23519 24.1659 4.88465 22.4823 6.56038L17.594 11.4197L26.5792 20.5217L17.0977 20.5203C19.134 20.5203 20.4205 17.1169 18.2406 14.8631L14.9111 11.4197L18.7866 7.45286C20.8739 5.31624 19.3594 2.56687 17.8932 2.23519ZM28.2198 18.7847L20.9437 11.4197L24.8205 7.45286C26.9078 5.31624 25.392 2.56687 23.9258 2.23519H26.4638C27.4324 2.23519 28.2171 3.01444 28.2171 3.97486L28.2198 18.7847ZM1.50173 29.6329V30.9597H2.09735C2.40723 30.9597 2.64198 30.9011 2.80162 30.7865C2.96125 30.6719 3.04174 30.5041 3.04174 30.2843C3.04174 30.0672 2.96796 29.9047 2.82174 29.7954C2.67552 29.6875 2.45686 29.6329 2.16576 29.6329H1.50173ZM1.50173 27.3711V28.6326H1.96186C2.28247 28.6326 2.52125 28.5779 2.68089 28.4714C2.83918 28.3635 2.91833 28.1996 2.91833 27.9799C2.91833 27.78 2.84454 27.6295 2.6943 27.5256C2.5454 27.4231 2.32405 27.3711 2.0343 27.3711H1.50173ZM0.0180664 26.3534H2.34552C3.03369 26.3534 3.5515 26.476 3.8976 26.7211C4.24504 26.9675 4.41809 27.3325 4.41809 27.8173C4.41809 28.1424 4.32687 28.4141 4.14577 28.6299C3.96467 28.8457 3.7004 29.0015 3.35296 29.0961C3.74333 29.168 4.04248 29.3199 4.25175 29.5517C4.46102 29.7835 4.56565 30.0792 4.56565 30.4388C4.56565 30.969 4.37516 31.3619 3.99284 31.6177C3.61187 31.8721 3.0243 32 2.23015 32H0.0180664V26.3534H0.0180664ZM7.81201 27.6135L7.07554 29.7302H8.52433L7.81201 27.6135ZM6.92798 26.3534H8.7564L10.9095 32H9.28897L8.88519 30.8038H6.69591L6.272 32H4.77224L6.92798 26.3534ZM11.2368 26.3534H13.1296L14.7756 29.7395C14.8319 29.8527 14.8977 30.0112 14.9728 30.2137C15.0466 30.4162 15.1297 30.6653 15.2196 30.9597C15.1727 30.6813 15.1364 30.4255 15.1136 30.1924C15.0908 29.9593 15.0801 29.7462 15.0801 29.553V26.3534H16.4484V32H14.5636L12.8533 28.4914C12.7741 28.3302 12.7003 28.1544 12.6333 27.9652C12.5675 27.776 12.5058 27.5696 12.4495 27.3471C12.5031 27.6841 12.542 27.9932 12.5675 28.2756C12.593 28.5566 12.6064 28.8057 12.6064 29.0202V32H11.2368V26.3534ZM17.5243 26.3534H19.0401V28.7937L20.8015 26.3534H22.4984L20.4098 28.9483L22.7117 32H20.8283L19.0401 29.3812V32H17.5243V26.3534ZM27.1225 29.6329V30.9597H27.7194C28.028 30.9597 28.2627 30.9011 28.4224 30.7865C28.5833 30.6719 28.6625 30.5041 28.6625 30.2843C28.6625 30.0672 28.59 29.9047 28.4425 29.7954C28.2963 29.6875 28.0776 29.6329 27.7865 29.6329H27.1225ZM27.1225 27.3711V28.6326H27.5826C27.9032 28.6326 28.1433 28.5779 28.3016 28.4714C28.4599 28.3635 28.5404 28.1996 28.5404 27.9799C28.5404 27.78 28.4653 27.6295 28.315 27.5256C28.1661 27.4231 27.9461 27.3711 27.655 27.3711H27.1225ZM25.6388 26.3534H27.9676C28.6558 26.3534 29.1722 26.476 29.5197 26.7211C29.8658 26.9675 30.0388 27.3325 30.0388 27.8173C30.0388 28.1424 29.949 28.4141 29.7679 28.6299C29.5854 28.8457 29.3211 29.0015 28.975 29.0961C29.3641 29.168 29.6632 29.3199 29.8725 29.5517C30.0818 29.7835 30.1864 30.0792 30.1864 30.4388C30.1864 30.969 29.9959 31.3619 29.6149 31.6177C29.234 31.8721 28.645 32 27.8509 32H25.6388V26.3534ZM32.5648 27.3471V28.7951H33.0974C33.4247 28.7951 33.6715 28.7351 33.8352 28.6179C33.9989 28.4994 34.0807 28.3222 34.0807 28.0864C34.0807 27.832 33.9895 27.6455 33.807 27.5256C33.6246 27.4057 33.3362 27.3471 32.9404 27.3471H32.5648ZM31.0825 26.3534H33.3415C34.0941 26.3534 34.6521 26.4746 35.017 26.7171C35.3819 26.9595 35.5644 27.3285 35.5644 27.824C35.5644 28.1903 35.4678 28.4914 35.2759 28.7271C35.0828 28.9629 34.8051 29.1201 34.4415 29.2C34.7407 29.3079 34.9808 29.617 35.1632 30.1258L35.842 32H34.2618L33.7614 30.4548C33.6809 30.2057 33.5723 30.0339 33.4328 29.938C33.2946 29.8434 33.0786 29.7954 32.7848 29.7954H32.5648V32H31.0825V26.3534ZM36.4658 26.3534H37.9817V32H36.4658V26.3534Z" fill="#1F4396"/>
</g>
<defs>
<clipPath id="clip0_34_529">
<rect width="38" height="32" fill="white"/>
</clipPath>
</defs>
</svg>
