<svg width="38" height="13" viewBox="0 0 38 13" fill="none" xmlns="http://www.w3.org/2000/svg">
<g clip-path="url(#clip0_34_567)">
<path d="M20.6485 10.8467C20.6093 11.5834 20.2815 12.0873 19.6531 12.3932C19.4704 12.4815 19.3002 12.4115 19.2172 12.2243C19.153 12.0795 19.2266 11.9153 19.3983 11.8385C19.8436 11.6398 20.0388 11.2326 20.0305 10.8488C20.02 10.382 19.7413 10.026 19.3023 9.87279C18.8795 9.72589 18.4379 9.86861 18.1258 10.2539C17.8862 10.5498 17.8658 11.0611 18.0762 11.4035C18.1926 11.5938 18.3466 11.7371 18.5491 11.8327C18.7401 11.9226 18.8075 12.0889 18.7302 12.2536C18.6514 12.4214 18.4645 12.4752 18.2771 12.3801C17.7739 12.126 17.4441 11.7308 17.3433 11.1698C17.1841 10.2832 17.7369 9.48802 18.5334 9.2674C19.4751 9.00653 20.3791 9.60251 20.59 10.4646C20.6229 10.6005 20.6328 10.7427 20.6485 10.8467Z" fill="#00AA11"/>
<path d="M23.0528 9.94651C23.0581 9.87594 23.0617 9.82 23.0664 9.7557C23.2293 9.7557 23.3859 9.7557 23.5524 9.7557C23.556 9.79125 23.5628 9.82523 23.5628 9.85921C23.5633 10.4343 23.5659 11.0099 23.5618 11.5855C23.5586 11.9404 23.4219 12.2327 23.105 12.4115C22.7083 12.6363 22.0893 12.5657 21.7348 12.2672C21.7014 12.2389 21.6696 12.2091 21.6304 12.1741C21.7359 12.0701 21.8392 11.9681 21.953 11.8563C22.13 11.9985 22.3283 12.0701 22.5601 12.0633C22.9176 12.0523 23.0941 11.8563 23.0476 11.4746C22.748 11.7094 22.4181 11.7182 22.0825 11.6058C21.8826 11.5389 21.7249 11.4051 21.6127 11.2179C21.3762 10.8232 21.4373 10.3224 21.7646 10.0166C22.1154 9.68878 22.6457 9.65532 23.0528 9.94651ZM23.0325 10.7114C23.0325 10.3778 22.8519 10.1959 22.523 10.199C22.2135 10.2016 22.0052 10.405 21.9937 10.6873C21.9791 11.0559 22.2182 11.2216 22.5345 11.2174C22.8597 11.2127 23.0325 11.0407 23.0325 10.7114Z" fill="black"/>
<path d="M31.2963 9.75001C30.9967 10.0328 30.7237 10.2911 30.4465 10.553C30.7284 10.9284 31.004 11.2954 31.2984 11.6875C31.0969 11.6875 30.9304 11.6927 30.7644 11.6838C30.7258 11.6817 30.6798 11.6404 30.6537 11.6054C30.5003 11.4005 30.3526 11.1913 30.2022 10.9843C30.1772 10.9493 30.15 10.9158 30.1051 10.8562C29.9971 10.9801 29.8593 11.0774 29.8123 11.2081C29.7633 11.3445 29.8014 11.5123 29.8014 11.688C29.7116 11.688 29.6338 11.688 29.556 11.688C29.4819 11.688 29.4073 11.688 29.3211 11.688C29.3175 11.63 29.3128 11.5834 29.3128 11.5364C29.3123 10.8108 29.3159 10.0846 29.3086 9.35844C29.3076 9.21886 29.3504 9.17861 29.4819 9.19272C29.5816 9.2037 29.6829 9.19481 29.7998 9.19481C29.7998 9.63605 29.7998 10.0616 29.7998 10.5232C29.9517 10.3857 30.0785 10.2733 30.2028 10.1583C30.3296 10.0417 30.4528 9.92149 30.5801 9.80595C30.6078 9.78086 30.6459 9.75315 30.6804 9.7521C30.8725 9.7474 31.0651 9.75001 31.2963 9.75001Z" fill="black"/>
<path d="M27.5456 10.8833C27.5758 11.0882 27.7716 11.2451 27.9971 11.2628C28.1876 11.278 28.3661 11.2503 28.5217 11.1264C28.5467 11.1065 28.6 11.0908 28.6214 11.1039C28.7258 11.1682 28.8234 11.2425 28.933 11.3198C28.5953 11.657 28.2106 11.7496 27.769 11.6403C27.4093 11.5514 27.1489 11.3491 27.0643 10.98C26.8811 10.1765 27.4991 9.64533 28.2132 9.76662C28.6276 9.83667 28.8855 10.0803 28.9826 10.486C29.0118 10.6073 29.0035 10.7374 29.0134 10.8833C28.7539 10.8833 28.5123 10.8833 28.2706 10.8833C28.0326 10.8833 27.794 10.8833 27.5456 10.8833ZM28.5044 10.5132C28.471 10.2722 28.2795 10.1571 27.9574 10.1723C27.7267 10.1828 27.5701 10.3145 27.5586 10.5132C27.8718 10.5132 28.1839 10.5132 28.5044 10.5132Z" fill="black"/>
<path d="M24.8803 9.72217C25.4514 9.74517 25.8757 10.1012 25.9185 10.6559C25.9473 11.0344 25.7813 11.3381 25.4493 11.542C25.0688 11.7757 24.4654 11.7129 24.1433 11.4014C23.66 10.9335 23.8077 10.1085 24.4267 9.84973C24.5703 9.78961 24.7284 9.76399 24.8803 9.72217ZM25.3997 10.7196C25.3987 10.4049 25.1982 10.1969 24.895 10.199C24.5546 10.2016 24.3766 10.4211 24.3651 10.7207C24.3542 11.0088 24.6006 11.2398 24.8892 11.2377C25.1977 11.2351 25.4007 11.0291 25.3997 10.7196Z" fill="black"/>
<path d="M26.2178 9.75098C26.3927 9.75098 26.5467 9.75098 26.7221 9.75098C26.7221 9.79437 26.7221 9.83619 26.7221 9.87801C26.7221 10.578 26.7221 11.278 26.7215 11.9781C26.7215 12.3309 26.5159 12.5364 26.163 12.5374C26.0273 12.538 25.8911 12.538 25.7407 12.538C25.7407 12.4548 25.7407 12.3853 25.7407 12.3158C25.7407 12.2457 25.7407 12.1751 25.7407 12.0805C25.8315 12.0805 25.914 12.0837 25.996 12.0795C26.1823 12.0706 26.2178 12.0324 26.2178 11.8484C26.2178 11.2017 26.2178 10.555 26.2178 9.90834C26.2178 9.86024 26.2178 9.81267 26.2178 9.75098Z" fill="black"/>
<path d="M18.3641 10.8538C18.326 10.5705 18.6846 10.2296 18.9889 10.2495C19.3261 10.272 19.6049 10.5349 19.6028 10.8721C19.6007 11.2078 19.3094 11.5042 18.9743 11.4953C18.6387 11.4864 18.3443 11.2203 18.3641 10.8538Z" fill="#00AA11"/>
<path d="M6.70068 9.98584H7.2211C7.50453 9.98584 7.67208 10.1458 7.67208 10.4025C7.67208 10.6634 7.50662 10.816 7.2211 10.816H6.85884V11.3372H6.70068V9.98584ZM7.2117 10.6655C7.41788 10.6655 7.51236 10.5823 7.51236 10.4025C7.51236 10.2232 7.41371 10.1364 7.2117 10.1364H6.85884V10.6655H7.2117Z" fill="black"/>
<path d="M8.23116 10.2848C8.52034 10.2848 8.71347 10.5028 8.71347 10.8254C8.71347 11.1479 8.52034 11.3659 8.23116 11.3659C7.94407 11.3659 7.75146 11.1479 7.75146 10.8254C7.75146 10.5028 7.94407 10.2848 8.23116 10.2848ZM8.23116 10.4259C8.02916 10.4259 7.90179 10.5802 7.90179 10.8254C7.90179 11.0705 8.02916 11.2248 8.23116 11.2248C8.43369 11.2248 8.56314 11.0705 8.56314 10.8254C8.56314 10.5802 8.43369 10.4259 8.23116 10.4259Z" fill="black"/>
<path d="M8.81104 10.3135H8.95928L9.14406 11.1092H9.14823L9.42175 10.3135H9.55851L9.83255 11.1092H9.8362L10.0215 10.3135H10.1697L9.92494 11.3371H9.78244L9.49326 10.5012H9.48908L9.19834 11.3371H9.05532L8.81104 10.3135Z" fill="black"/>
<path d="M10.74 10.2848C11.014 10.2848 11.1967 10.4913 11.1967 10.7924V10.8698H10.42C10.4242 11.0669 10.5494 11.2289 10.7363 11.2289C10.8809 11.2289 10.9618 11.1767 11.0485 11.024L11.1737 11.0993C11.0871 11.275 10.9388 11.3659 10.74 11.3659C10.4565 11.3659 10.2676 11.1479 10.2676 10.8254C10.2676 10.5028 10.4628 10.2848 10.74 10.2848ZM11.0448 10.748C11.0427 10.6534 11.0119 10.5765 10.9561 10.5143C10.9002 10.4526 10.8287 10.4218 10.74 10.4218C10.5667 10.4218 10.4278 10.5765 10.4242 10.748H11.0448Z" fill="black"/>
<path d="M11.4116 10.3135H11.5541V10.3987H11.5578C11.5964 10.335 11.6716 10.2963 11.7697 10.2963C11.8005 10.2963 11.8355 10.302 11.872 10.3119L11.8391 10.4683C11.8026 10.4568 11.7681 10.451 11.7389 10.451C11.6178 10.451 11.5614 10.532 11.5614 10.7229V11.3371H11.4116V10.3135Z" fill="black"/>
<path d="M12.4133 10.2848C12.6868 10.2848 12.87 10.4913 12.87 10.7924V10.8698H12.0933C12.097 11.0669 12.2223 11.2289 12.4091 11.2289C12.5537 11.2289 12.6351 11.1767 12.7218 11.024L12.8471 11.0993C12.7604 11.275 12.6117 11.3659 12.4133 11.3659C12.1299 11.3659 11.9409 11.1479 11.9409 10.8254C11.9409 10.5028 12.1356 10.2848 12.4133 10.2848ZM12.7176 10.748C12.7161 10.6534 12.6853 10.5765 12.6294 10.5143C12.573 10.4526 12.502 10.4218 12.4133 10.4218C12.24 10.4218 12.1012 10.5765 12.097 10.748H12.7176Z" fill="black"/>
<path d="M13.5037 10.2847C13.6274 10.2847 13.7371 10.337 13.8044 10.4216H13.8086V9.92761H13.9589V11.3371H13.8143V11.2346H13.8101C13.7428 11.3177 13.629 11.3658 13.5037 11.3658C13.2381 11.3658 13.0449 11.1436 13.0449 10.8252C13.0449 10.5069 13.2381 10.2847 13.5037 10.2847ZM13.8086 10.7249C13.8086 10.5586 13.6734 10.4258 13.5037 10.4258C13.3205 10.4258 13.1953 10.5837 13.1953 10.8252C13.1953 11.0668 13.3205 11.2247 13.5137 11.2247C13.6755 11.2247 13.8086 11.0898 13.8086 10.9235V10.7249Z" fill="black"/>
<path d="M14.8784 11.2347V11.3372H14.7344V9.92773H14.8842V10.4218H14.8884C14.9557 10.3371 15.0658 10.2848 15.189 10.2848C15.4552 10.2848 15.6478 10.507 15.6478 10.8254C15.6478 11.1437 15.4552 11.3659 15.189 11.3659C15.0637 11.3659 14.95 11.3178 14.8826 11.2347H14.8784ZM15.189 10.426C15.0194 10.426 14.8842 10.5587 14.8842 10.725V10.9236C14.8842 11.0899 15.0173 11.2248 15.1791 11.2248C15.3722 11.2248 15.4975 11.0669 15.4975 10.8254C15.4975 10.5838 15.3722 10.426 15.189 10.426Z" fill="black"/>
<path d="M16.0908 11.2498L15.6978 10.3135H15.858L16.1681 11.0762H16.1717L16.4844 10.3135H16.6441L16.0313 11.771H15.8752L16.0908 11.2498Z" fill="black"/>
<path d="M4.14607 0.00354004C6.43547 0.00354004 8.29162 1.79775 8.29162 4.01072C8.29162 6.22369 6.43547 8.0179 4.14607 8.0179C1.85615 8.0179 0 6.22369 0 4.01072C0 1.79775 1.85615 0.00354004 4.14607 0.00354004Z" fill="#00AED6"/>
<path fill-rule="evenodd" clip-rule="evenodd" d="M6.56426 3.88733C6.53242 3.37709 6.08352 2.98604 5.55527 3.00904H2.93651C2.84099 3.00904 2.76373 2.93429 2.76373 2.84175C2.76373 2.74974 2.84099 2.67498 2.93651 2.67498H5.58972C5.57459 2.32942 5.3303 2.03247 4.98527 1.94046C4.2117 1.80663 3.41986 1.80663 2.64629 1.94046C2.20678 2.04502 1.87794 2.39843 1.81739 2.83182C1.69629 3.61809 1.69629 4.41692 1.81739 5.20267C1.90978 5.66168 2.28665 6.01665 2.76373 6.09455C3.72261 6.21113 4.69297 6.21113 5.65184 6.09455C6.07934 6.0109 6.40244 5.67161 6.4536 5.25286C6.54129 4.80273 6.57835 4.34477 6.56426 3.88733ZM5.70038 4.44828V4.59519C5.70038 4.6872 5.62313 4.76196 5.52761 4.76196C5.43209 4.76196 5.35483 4.6872 5.35483 4.59519V4.44828C5.29898 4.40123 5.26766 4.33275 5.26871 4.26112C5.26871 4.12259 5.38459 4.01071 5.52761 4.01071C5.67063 4.01071 5.78651 4.12259 5.78651 4.26112C5.78599 4.33222 5.75467 4.40019 5.70038 4.44828Z" fill="white"/>
<path d="M20.1001 3.56017C20.1059 2.85755 19.5212 2.28352 18.7941 2.27777C18.067 2.27254 17.4735 2.83716 17.4678 3.53979C17.462 4.24241 18.0467 4.81696 18.7738 4.82219C18.7806 4.82219 18.7873 4.82219 18.7941 4.82219C19.4837 4.85826 20.073 4.34645 20.11 3.67989C20.1121 3.64016 20.1121 3.59991 20.1106 3.56017H20.1001ZM16.1895 3.56017C16.1895 2.22445 17.2809 1.20605 18.7941 1.20605C20.3073 1.20605 21.3993 2.23072 21.3993 3.56017C21.3993 4.8891 20.3178 5.91743 18.7941 5.91743C17.2705 5.91743 16.1895 4.89224 16.1895 3.56017Z" fill="black"/>
<path d="M14.1169 3.80355C14.1169 4.35457 13.5365 4.80522 12.801 4.80522C12.125 4.87161 11.5216 4.39535 11.4533 3.74186C11.4465 3.67599 11.4454 3.6096 11.4501 3.5432C11.4501 2.81496 12.0029 2.31412 12.8527 2.31412C13.5438 2.31412 14.1169 2.77157 14.1169 3.28913V3.80355ZM14.1686 1.20215V1.72965C13.7484 1.36056 13.1914 1.17183 12.6246 1.20581C11.2841 1.21731 10.2078 2.27753 10.2198 3.573C10.2324 4.86847 11.329 5.90935 12.6695 5.89732C13.2212 5.92137 13.7583 5.72166 14.1514 5.3463V5.79695C14.1514 6.40809 13.6059 6.85559 12.8871 6.85559C12.3385 6.89376 11.7978 6.71026 11.3948 6.34797L10.5549 7.12954C11.1844 7.72656 12.04 8.04755 12.9216 8.01776C14.3936 8.01776 15.402 7.06262 15.402 5.79067V1.20215H14.1686Z" fill="black"/>
<path d="M22.1597 1.33934H23.3962V1.73353H23.4135C23.819 1.37594 24.3546 1.18878 24.9027 1.2123C26.2488 1.26145 27.2991 2.35617 27.2484 3.65687C27.2004 4.8896 26.1779 5.87768 24.9027 5.9242C24.3791 5.93571 23.8681 5.76946 23.4584 5.45317V7.68391H22.1701L22.1597 1.33934ZM24.7022 2.31434C24.0111 2.31434 23.4484 2.77858 23.4484 3.28307V3.84716C23.4484 4.38459 24.0043 4.82896 24.709 4.82896C25.4278 4.86451 26.0401 4.33074 26.0771 3.63648C26.1142 2.94221 25.5619 2.35042 24.8432 2.31434C24.7988 2.31225 24.7539 2.31225 24.709 2.31434H24.7022Z" fill="black"/>
<path d="M29.7221 3.12943C30.5687 3.01912 30.8209 2.90202 30.8209 2.67513C30.8209 2.38132 30.4998 2.2041 30.0019 2.2041C29.4658 2.16175 28.9777 2.50365 28.8514 3.00919L27.6357 2.76505C27.8085 1.85696 28.7757 1.20923 29.9674 1.20923C31.3152 1.20923 32.1509 1.87683 32.1509 2.959V5.79409H30.9936V5.30005H30.9764C30.5839 5.72717 30.0081 5.95406 29.4183 5.91433C28.3989 5.91433 27.6905 5.37638 27.6905 4.5786C27.6905 3.78031 28.271 3.32287 29.7221 3.12943ZM30.9247 3.59994H30.9075C30.7932 3.76044 30.562 3.85402 29.9225 3.96067C29.1662 4.09764 28.8864 4.24141 28.8864 4.50175C28.8864 4.7621 29.1109 4.88914 29.5979 4.88914C30.3406 4.88914 30.9143 4.55508 30.9143 4.1311L30.9247 3.59994Z" fill="black"/>
<path d="M34.4828 5.54338L32.3511 1.33911H33.7714L35.1703 4.25105H35.1912L36.5728 1.33911H37.9999L34.8075 7.68368H33.3877L34.4828 5.54338Z" fill="black"/>
</g>
<defs>
<clipPath id="clip0_34_567">
<rect width="38" height="12.5469" fill="white"/>
</clipPath>
</defs>
</svg>
