<svg width="38" height="13" viewBox="0 0 38 13" fill="none" xmlns="http://www.w3.org/2000/svg">
<path fill-rule="evenodd" clip-rule="evenodd" d="M12.8811 0.342334H17.7679L17.7711 2.29077L16.5679 2.28757L19.4214 9.01912L22.2267 2.29397H20.9914L20.9881 0.348734L24.9033 0.345536L24.8969 1.45573L20.1871 12.3913C19.0515 12.3945 18.3115 11.985 17.9158 11.1275L14.0393 2.29397H12.8779L12.8811 0.342334ZM6.15425 0C9.55469 0 12.3117 2.76109 12.3117 6.16525C12.3117 9.56942 9.55469 12.3273 6.15425 12.3273C2.75703 12.3273 0 9.56942 0 6.16525C0 2.76109 2.75703 0 6.15425 0ZM6.13816 2.01562C8.28073 2.01562 10.0179 3.89367 10.0179 6.21004C10.0179 8.52641 8.28073 10.4013 6.13816 10.4013C3.99238 10.4013 2.25516 8.52641 2.25516 6.21004C2.25516 3.89367 3.99238 2.01562 6.13816 2.01562ZM31.8425 0C35.243 0 38 2.76109 38 6.16525C38 9.56942 35.243 12.3273 31.8425 12.3273C28.4453 12.3273 25.6883 9.56942 25.6883 6.16525C25.6883 2.76109 28.4453 0 31.8425 0ZM31.8264 2.01562C33.969 2.01562 35.7062 3.89367 35.7062 6.21004C35.7062 8.52641 33.969 10.4013 31.8264 10.4013C29.6807 10.4013 27.9434 8.52641 27.9434 6.21004C27.9434 3.89367 29.6807 2.01562 31.8264 2.01562Z" fill="#4C3494"/>
</svg>
