<svg width="26" height="28" viewBox="0 0 26 28" fill="none" xmlns="http://www.w3.org/2000/svg">
<g clip-path="url(#clip0_34_620)">
<path d="M22.056 2.17924C20.6408 0.706738 18.0827 0.0754395 14.81 0.0754395H5.31189C4.98809 0.0754504 4.67492 0.180907 4.42868 0.372849C4.18243 0.564791 4.01927 0.830628 3.96852 1.12257L0.0136809 24.0202C-0.0649285 24.4717 0.318064 24.8806 0.819376 24.8806H6.68319L8.15584 16.3535L8.11014 16.6205C8.21505 16.0177 8.77974 15.5732 9.44843 15.5732H12.2349C17.7089 15.5732 21.9952 13.5434 23.2472 7.67188C23.2844 7.49822 23.3166 7.3292 23.3444 7.16408C23.1864 7.08768 23.1864 7.08768 23.3444 7.16408C23.7172 4.99389 23.3419 3.51666 22.056 2.17924Z" fill="#27346A"/>
<path d="M10.3996 6.3823C10.5599 6.31262 10.7352 6.27651 10.9128 6.2766H18.3591C19.2409 6.2766 20.0633 6.32899 20.8149 6.43941C21.0252 6.47002 21.2344 6.50657 21.4423 6.549C21.7368 6.60834 22.028 6.68096 22.3147 6.7666C22.6842 6.87925 23.0283 7.01045 23.3445 7.16408C23.7173 4.99306 23.3419 3.51666 22.056 2.17924C20.64 0.706737 18.0827 0.0754395 14.81 0.0754395H5.31108C4.64229 0.0754395 4.07334 0.519916 3.96852 1.12257L0.0136814 24.0193C-0.064928 24.4716 0.318064 24.8799 0.818564 24.8799H6.68319L9.73849 7.19263C9.76854 7.01878 9.8444 6.85419 9.95955 6.71304C10.0747 6.57188 10.2257 6.45838 10.3996 6.3823Z" fill="#27346A"/>
<path d="M23.247 7.67186C21.995 13.5426 17.7088 15.5731 12.2347 15.5731H9.44741C8.77873 15.5731 8.21394 16.0177 8.11004 16.6205L6.27795 27.2229C6.2095 27.6181 6.54425 27.9761 6.98219 27.9761H11.9252C12.2084 27.9761 12.4822 27.8838 12.6975 27.7159C12.9128 27.5479 13.0553 27.3154 13.0996 27.0601L13.1477 26.8302L14.0794 21.4401L14.1394 21.1422C14.1836 20.8869 14.3262 20.6544 14.5415 20.4865C14.7567 20.3186 15.0305 20.2262 15.3137 20.2262H16.0534C20.8418 20.2262 24.5912 18.4503 25.6869 13.3142C26.1442 11.1679 25.9075 9.37588 24.6977 8.11718C24.3308 7.73593 23.8751 7.42107 23.3442 7.16406C23.3155 7.33002 23.2843 7.49821 23.247 7.67186Z" fill="#2790C3"/>
<path d="M22.0349 6.68713C21.8397 6.63509 21.6426 6.58901 21.444 6.54898C21.2361 6.50725 21.0269 6.47095 20.8167 6.44013C20.0643 6.32897 19.2425 6.27649 18.3599 6.27649H10.9144C10.7367 6.27612 10.5613 6.31255 10.4012 6.38302C10.2272 6.45887 10.076 6.5723 9.96081 6.7135C9.8456 6.8547 9.76984 7.0194 9.74007 7.19335L8.15752 16.3534L8.11182 16.6205C8.21592 16.0177 8.78061 15.5731 9.44939 15.5731H12.2367C17.7107 15.5731 21.9968 13.5434 23.2489 7.67186C23.2862 7.4982 23.3174 7.32992 23.3462 7.16406C23.0291 7.01126 22.6859 6.87923 22.3163 6.76733C22.2231 6.7391 22.1293 6.71237 22.035 6.68713" fill="#1F264F"/>
</g>
<defs>
<clipPath id="clip0_34_620">
<rect width="26" height="28" fill="white"/>
</clipPath>
</defs>
</svg>
