<svg width="16" height="16" viewBox="0 0 16 16" fill="none" xmlns="http://www.w3.org/2000/svg">
<path fill-rule="evenodd" clip-rule="evenodd" d="M7.89653 14.4411C5.43531 14.4411 3.3335 14.0581 3.3335 12.5243C3.3335 10.9904 5.42198 9.57446 7.89653 9.57446C10.3577 9.57446 12.4596 10.9767 12.4596 12.5106C12.4596 14.0438 10.3711 14.4411 7.89653 14.4411Z" stroke="#4F5665" stroke-width="1.5" stroke-linecap="round" stroke-linejoin="round"/>
<path fill-rule="evenodd" clip-rule="evenodd" d="M7.89166 7.44894C9.50681 7.44894 10.8159 6.13985 10.8159 4.5247C10.8159 2.90955 9.50681 1.59985 7.89166 1.59985C6.27651 1.59985 4.96681 2.90955 4.96681 4.5247C4.96136 6.1344 6.26136 7.44349 7.87106 7.44894C7.87833 7.44894 7.885 7.44894 7.89166 7.44894Z" stroke="#4F5665" stroke-width="1.5" stroke-linecap="round" stroke-linejoin="round"/>
</svg>
